<svg width="162" height="41" viewBox="0 0 162 41" fill="none" xmlns="http://www.w3.org/2000/svg">
<g clip-path="url(#clip0_20_38)">
<path fill-rule="evenodd" clip-rule="evenodd" d="M0.000892692 18.2581C0.0449854 22.3851 1.45624 26.4016 4.2321 29.3637L4.36749 29.506C4.39367 29.5332 4.42076 29.56 4.44781 29.5873C5.95586 31.1592 10.3703 35.7517 19.9124 35.7517C31.0416 35.7517 39.7545 29.3675 39.7545 17.6934C39.7545 13.4298 38.2975 9.26793 35.3867 6.24572C35.3591 6.217 35.3307 6.18842 35.302 6.15953C33.7896 4.58317 29.3743 2.48568e-06 19.8418 1.74542e-06L19.5815 0.00122254C8.5771 0.100164 -7.24809e-05 6.47545 -7.78629e-05 18.0584L0.000892692 18.2581ZM1.24225 18.0584C1.24226 12.5613 3.28012 8.40468 6.5525 5.60357C9.84939 2.78151 14.5028 1.25015 19.8418 1.25012C21.3143 1.25012 22.6541 1.36462 23.8711 1.56119C23.5286 1.62502 23.1968 1.70371 22.8785 1.79827C18.8027 3.00908 16.4134 5.38885 15.433 6.3092C14.4011 7.2778 13.3111 8.56264 12.489 10.4659C11.6706 12.3606 11.1457 14.8031 11.1457 18.0584C11.1457 24.6502 13.5794 27.9797 15.2151 29.4684C15.8764 30.0703 16.8751 30.6637 18.0547 30.9837C15.9775 31.9407 13.98 32.1442 12.1949 31.9369C9.09334 31.5766 6.53722 29.9624 5.25969 28.6361C2.60443 25.8792 1.24226 22.0448 1.24225 18.0584ZM16.4341 7.07881C19.2469 4.79629 22.3364 5.96397 23.7059 7.21041C25.0813 8.46223 27.3662 11.455 27.3662 17.6934C27.3661 23.9316 25.3564 26.7613 23.4739 28.5284C23.4261 28.5733 23.3749 28.6211 23.3211 28.6719C20.5081 30.9554 17.4183 29.7879 16.0486 28.5413C14.6946 27.3091 12.4593 24.3899 12.3898 18.3484L12.3881 18.0584C12.3881 12.0151 14.2744 9.17071 16.1036 7.39231L16.2805 7.22335C16.3287 7.17818 16.3799 7.12997 16.4341 7.07881Z" fill="#F6F6F5"/>
</g>
<path d="M144.97 8.97589L150.83 23.8719L156.256 8.97589H161.935L152.144 34.4921L152.143 34.495C151.298 36.6151 150.203 38.2124 148.846 39.2649L148.847 39.2652C147.485 40.3517 145.834 40.8902 143.906 40.8902H141.021L140.971 36.0382H143.414C144.286 36.0382 145.02 35.7853 145.627 35.2866L145.633 35.2822C146.241 34.8103 146.74 34.0772 147.117 33.0592L148.112 30.28L139.285 8.97589H144.97ZM82.7144 15.7327C82.7144 15.0759 82.4193 14.5176 81.7864 14.0482L81.7816 14.0446L81.777 14.0407C81.1773 13.5483 80.3587 13.2893 79.2953 13.2893C77.9071 13.2893 76.8562 13.6512 76.1097 14.3448L76.1094 14.345C75.3728 15.0273 74.9569 15.8129 74.8456 16.7061L74.8187 16.9226L69.3147 16.9718L69.3424 16.6952C69.4954 15.1601 69.9857 13.7601 70.8134 12.4989C71.6438 11.2336 72.7808 10.2478 74.2176 9.54151L74.3533 9.47358C75.7595 8.78113 77.334 8.4373 79.0718 8.4373C81.8863 8.43732 84.1149 9.18155 85.7238 10.7008L85.875 10.8417C87.4108 12.3099 88.1761 14.2014 88.1761 16.4955V31.9143H82.7144V29.6883C82.0468 30.4027 81.2552 30.9824 80.3407 31.4266L80.1131 31.5332C78.8897 32.0856 77.6324 32.363 76.3433 32.363C75.0533 32.363 73.8405 32.12 72.7076 31.6328L72.4821 31.5323C71.2801 30.9756 70.3198 30.1685 69.6074 29.1118L69.6057 29.1091C68.8906 28.0173 68.536 26.7567 68.536 25.3367C68.536 24.2937 68.7039 23.3494 69.0451 22.5079L69.1116 22.3458C69.4532 21.5431 69.9476 20.8736 70.5952 20.3419L70.5969 20.3404L70.5989 20.3389C72.0534 19.19 74.1652 18.5084 76.9032 18.2669L76.9036 18.2666L77.413 18.2218C78.5616 18.1176 79.4568 18.0138 80.1007 17.9106C80.8164 17.7665 81.4402 17.5238 81.9757 17.1853C82.4692 16.8453 82.7144 16.3713 82.7144 15.7327ZM120.701 8.97589V31.9143H115.195V8.97589H120.701ZM120.836 0V5.99391H115.016V0H120.836ZM74.1766 25.0226C74.1766 25.7638 74.4333 26.3879 74.9517 26.9089C75.4321 27.3642 76.1014 27.6422 76.9835 27.7224L77.163 27.7358L77.1655 27.7361L77.3208 27.7446C78.0969 27.7764 78.8891 27.6451 79.6991 27.3475C80.5513 27.0046 81.2594 26.4786 81.8274 25.767C82.3872 25.0363 82.686 24.147 82.7146 23.0862L82.7505 21.4597C82.3613 21.6141 81.8863 21.7528 81.3285 21.8766L80.999 21.9462C80.092 22.1282 79.0378 22.264 77.8379 22.3543L77.8376 22.354C76.5634 22.4721 75.6448 22.7679 75.0497 23.214C74.4675 23.6505 74.1766 24.244 74.1766 25.0226ZM132.367 24.4841C132.367 25.6098 132.547 26.3045 132.84 26.6513C133.154 26.9877 133.791 27.1967 134.847 27.1967H138.139L138.089 31.9143H133.594C131.75 31.9143 130.21 31.3415 128.995 30.1853L128.991 30.1807C127.807 28.993 127.218 27.4916 127.218 25.6959V13.5135H123.73V8.97589H127.218V1.79498H132.367V8.97589H138.092V13.5135H132.367V24.4841ZM66.1017 20.3104C66.1016 22.7674 65.6024 24.9048 64.5945 26.7137L64.5947 26.7139C63.621 28.4848 62.338 29.8363 60.7442 30.7589L60.744 30.7587C59.1864 31.6776 57.5187 32.1385 55.7447 32.1385C54.0395 32.1385 52.5741 31.8242 51.3586 31.1833L51.2419 31.1203C50.254 30.5751 49.4214 29.9266 48.7476 29.1738V40.8902H43.7331V8.97589H48.7476V11.5089C48.9971 11.211 49.3105 10.9091 49.6836 10.6029C50.3639 10.0145 51.2077 9.5239 52.2096 9.12783C53.2269 8.69582 54.3618 8.48211 55.6105 8.4821C57.2968 8.4821 58.9477 8.94378 60.5603 9.85902C62.1851 10.7511 63.5132 12.1022 64.5467 13.9011L64.6428 14.0691C65.619 15.8164 66.1017 17.9002 66.1017 20.3104ZM48.7923 20.1758C48.7923 21.5498 49.0395 22.7848 49.5292 23.8848C50.0481 24.9536 50.7495 25.7843 51.6319 26.385C52.5437 26.9854 53.5695 27.2866 54.7161 27.2866C56.4376 27.2866 57.8296 26.6712 58.9131 25.441L59.0133 25.3243C60.0328 24.1079 60.5506 22.5481 60.5506 20.6245C60.5506 18.485 59.9964 16.7649 58.9078 15.4427L58.9061 15.4407C57.8198 14.0925 56.4295 13.4239 54.7161 13.4239C52.9664 13.4239 51.5449 14.0529 50.4314 15.3121L50.331 15.4317C49.3098 16.6771 48.7923 18.2525 48.7923 20.1758ZM96.3725 20.1308C96.3725 21.6587 96.6212 22.9842 97.1111 24.113L97.2053 24.317C97.6854 25.3196 98.3128 26.0966 99.0834 26.6577C99.9362 27.2271 100.871 27.5111 101.894 27.5111C103.186 27.5111 104.227 27.1524 105.039 26.4514C105.864 25.7089 106.371 24.8153 106.569 23.7645L106.608 23.5617H112.106L112.069 23.8437C111.855 25.4701 111.273 26.9312 110.323 28.2225L110.322 28.225C109.372 29.4852 108.147 30.4671 106.652 31.1714L106.653 31.1717C105.185 31.8773 103.567 32.2284 101.804 32.2284C99.6775 32.2284 97.7699 31.7402 96.0883 30.7585L96.0861 30.757L96.0837 30.7555C94.4343 29.7441 93.1368 28.3492 92.1924 26.5763L92.19 26.5719C91.2755 24.7673 90.8214 22.723 90.8214 20.4451C90.8214 18.237 91.2622 16.2485 92.1492 14.485L92.2363 14.3151C93.1806 12.4818 94.4938 11.0557 96.1749 10.0436L96.1766 10.0426L96.3378 9.94911C98.0095 8.9995 99.8934 8.5269 101.983 8.5269C103.717 8.52692 105.32 8.87825 106.787 9.58364L106.924 9.6506C108.326 10.3494 109.474 11.3087 110.365 12.5281L110.453 12.6443C111.353 13.851 111.892 15.2317 112.07 16.7811L112.102 17.0592H106.618L106.572 16.8688C106.317 15.8151 105.765 14.9334 104.91 14.2187L104.907 14.216L104.903 14.2128C104.09 13.4813 103.063 13.1096 101.804 13.1096C100.811 13.1096 99.9062 13.3934 99.0827 13.9632L99.0803 13.9649L99.0779 13.9664C98.2586 14.505 97.601 15.3033 97.1101 16.3752L97.1089 16.3776C96.6212 17.4141 96.3725 18.6625 96.3725 20.1308Z" fill="#F6F6F5"/>
<defs>
<clipPath id="clip0_20_38">
<rect width="39.7546" height="35.75" fill="white" transform="matrix(1 0 0 -1 0 35.75)"/>
</clipPath>
</defs>
</svg>
